<svg width="148" height="32" viewBox="0 0 148 32" fill="none" xmlns="http://www.w3.org/2000/svg">
<g clip-path="url(#clip0_503_992)">
<path d="M31.2802 0.697113L29.1778 14.5057C28.5749 18.451 26.269 20.4236 22.2676 20.4236H17.8593L15.7569 32.0074H7.73904L9.84147 20.4236H5.22969C1.22076 20.4236 -0.482276 18.451 0.12057 14.5057L2.223 0.697113H10.2409L8.43985 12.533C8.23639 13.8457 8.80909 14.5057 10.1429 14.5057H19.163C20.4968 14.5057 21.2654 13.8457 21.4689 12.533L23.2623 0.697113H31.2802Z" fill="#0055b9"/>
<path d="M39.6673 30.2795L42.674 10.5604H32.0564L32.9606 4.6424H62.0178L61.1136 10.5604H50.6918L47.6852 30.2795H39.6673Z" fill="#0055b9"/>
<path d="M60.1791 32L65.0547 0H89.9221C93.7501 0 95.3703 1.88366 94.7976 5.64357L90.7811 31.9926H83.1325L87.149 5.64357H83.3209L79.3044 31.9926H71.6558L75.6723 5.64357H71.8442L67.8278 31.9926H60.1791V32Z" fill="#151515"/>
<path d="M92.9891 32L96.4253 9.4702C96.9151 6.25166 98.799 4.6424 102.069 4.6424H116.786C120.057 4.6424 121.451 6.25166 120.954 9.4702L119.974 15.9073C119.484 19.1258 117.6 20.7351 114.33 20.7351H101.248L99.53 32H92.9891ZM113.674 14.298L114.164 11.0795C114.33 10.0042 113.863 9.4702 112.77 9.4702H104.594C103.501 9.4702 102.876 10.0042 102.718 11.0795L101.979 15.9073H111.79C112.883 15.9073 113.508 15.3733 113.667 14.298H113.674Z" fill="#151515"/>
<path d="M128.135 15.9073H137.946C139.039 15.9073 139.664 15.3733 139.83 14.298L140.32 11.0795C140.486 10.0042 140.019 9.4702 138.926 9.4702H122.559L123.312 4.6424H142.935C146.205 4.6424 147.592 6.25166 147.102 9.4702L146.364 14.298C145.942 16.7082 144.367 18.0505 141.654 18.3175C144.284 18.5845 145.444 19.9268 145.135 22.3369L144.397 27.1648C143.907 30.3833 142.023 31.9926 138.753 31.9926H119.13L119.868 27.1648H136.221C137.313 27.1648 137.939 26.6308 138.097 25.5555L138.587 22.3369C138.753 21.2616 138.285 20.7277 137.2 20.7277H127.389L128.127 15.8999L128.135 15.9073Z" fill="#151515"/>
</g>
<defs>
<clipPath id="clip0_503_992">
<rect width="147.2" height="32" fill="white"/>
</clipPath>
</defs>
</svg> 
 