<?xml version="1.0" encoding="utf-8"?>
<!-- Generator: Adobe Illustrator 16.0.0, SVG Export Plug-In . SVG Version: 6.00 Build 0)  -->
<!DOCTYPE svg PUBLIC "-//W3C//DTD SVG 1.1//EN" "http://www.w3.org/Graphics/SVG/1.1/DTD/svg11.dtd">
<svg version="1.1" id="Calque_1" xmlns="http://www.w3.org/2000/svg" xmlns:xlink="http://www.w3.org/1999/xlink" x="0px" y="0px"
	 width="1106.047px" height="197.504px" viewBox="0 0 1106.047 197.504" enable-background="new 0 0 1106.047 197.504"
	 xml:space="preserve">
<g>
	<path fill="#63625E" d="M50.154,11.09l38.17,58.588l38.172-58.588h50.153l-67.465,100.975v82.11h-41.72v-82.11L0,11.09H50.154z"/>
	<path fill="#63625E" d="M267.42,7.761c50.82,0,92.096,41.278,92.096,94.761c0,53.483-39.502,94.982-92.096,94.982
		c-54.148,0-92.319-41.499-92.319-94.982C175.101,49.039,217.043,7.761,267.42,7.761z M267.42,157.114
		c33.287,0,47.047-27.296,47.047-54.592s-14.647-54.593-47.047-54.593c-32.179,0-47.27,27.297-47.27,54.593
		S233.242,157.114,267.42,157.114z"/>
	<path fill="#63625E" d="M518.641,129.152c0,45.271-24.854,68.352-71.457,68.352c-46.605,0-71.459-23.08-71.459-68.352V11.09h41.721
		v105.857c0,30.625,9.32,39.501,29.738,39.501c20.415,0,29.736-8.876,29.736-39.501V11.09h41.721V129.152z"/>
	<path fill="#63625E" d="M606.082,157.558h84.774v36.617H533.293l90.545-146.468h-77.674V11.09h150.685L606.082,157.558z"/>
	<path fill="#63625E" d="M755.441,194.175h-41.72V11.09h41.72V194.175z"/>
	<path fill="#63625E" d="M891.262,194.175l-67.465-77.672v77.672h-41.721V11.09h41.721v74.787L886.6,11.09h50.6l-73.678,86.771
		l85.217,96.313H891.262z"/>
</g>
<path fill="#f20a51" d="M1008.893,0c-16.078,0-31.229,3.93-44.584,10.842v-0.116l-73.977,88.279l73.977,84.581v-0.116
	c13.355,6.913,28.508,10.842,44.584,10.842c53.656,0,97.154-43.498,97.154-97.156S1062.549,0,1008.893,0z M1009.516,157.168
	l-49.992-47.911h17.68c1.684,0,3.043-1.362,3.043-3.043V52.096h58.539v54.118c0,1.681,1.361,3.043,3.043,3.043h17.678
	L1009.516,157.168z"/>
</svg>
